Coordinates
version=1
nRows=38
nColumns=38
inDegrees=no

Units are S.I. units (second, meters, Newtons, ...)
If the header above contains a line with 'inDegrees', this indicates whether rotational values are in degrees (yes) or radians (no).

endheader
time	pelvis_tilt	pelvis_list	pelvis_rotation	pelvis_tx	pelvis_ty	pelvis_tz	hip_flexion_r	hip_adduction_r	hip_rotation_r	knee_angle_r	ankle_angle_r	subtalar_angle_r	mtp_angle_r	hip_flexion_l	hip_adduction_l	hip_rotation_l	knee_angle_l	ankle_angle_l	subtalar_angle_l	mtp_angle_l	lumbar_extension	lumbar_bending	lumbar_rotation	arm_flex_r	arm_add_r	arm_rot_r	elbow_flex_r	pro_sup_r	wrist_flex_r	wrist_dev_r	arm_flex_l	arm_add_l	arm_rot_l	elbow_flex_l	pro_sup_l	wrist_flex_l	wrist_dev_l
0	-0.961408	1.44202	-0.451096	0.7641	2.0641	0.995395	0.456517	0.0488765	-0.101848	0.534318	-0.146078	0	0	-0.225512	-0.225527	-0.167113	0.685324	-0.104889	0	0	-0.325405	0.201697	0.0377373	-0.325163	-0.402502	0.272678	0.707586	1.0118	0	0	0.550568	-0.559999	1.33291	0.638193	1.17087	0	0
0.01	-1.00989	1.44295	-0.408814	0.762759	2.05159	0.995465	0.466736	0.0563337	-0.092568	0.56365	-0.140382	0	0	-0.21501	-0.22563	-0.157517	0.714384	-0.118122	0	0	-0.318546	0.205287	0.0487876	-0.332217	-0.402996	0.26782	0.706896	1.00618	0	0	0.545876	-0.548719	1.36429	0.617066	1.14583	0	0
0.02	-1.02612	1.4417	-0.396366	0.761443	2.03871	0.996345	0.463979	0.0610465	-0.0997192	0.577495	-0.141063	0	0	-0.206921	-0.226148	-0.146175	0.745425	-0.134195	0	0	-0.318588	0.211309	0.0520119	-0.335541	-0.404969	0.263676	0.709613	1.00445	0	0	0.531509	-0.544167	1.37546	0.601195	1.13863	0	0
0.03	-1.05359	1.44206	-0.372422	0.76001	2.02572	0.99722	0.460329	0.0647029	-0.11239	0.586229	-0.136332	0	0	-0.192863	-0.225654	-0.134201	0.781525	-0.157163	0	0	-0.315974	0.216281	0.0552706	-0.339538	-0.405224	0.257332	0.711233	1.00479	0	0	0.522457	-0.538729	1.40917	0.584061	1.10698	0	0
0.04	-1.06511	1.44193	-0.36477	0.758599	2.01287	0.998373	0.450887	0.0687819	-0.125022	0.586781	-0.133076	0	0	-0.178585	-0.22364	-0.121421	0.820073	-0.177358	0	0	-0.315898	0.220561	0.0574593	-0.342148	-0.406535	0.254035	0.714045	1.00616	0	0	0.505718	-0.53591	1.41507	0.571915	1.09601	0	0
0.05	-1.08589	1.44307	-0.347858	0.75716	2.00015	0.999467	0.442924	0.072413	-0.135078	0.587989	-0.121859	0	0	-0.159297	-0.219819	-0.106825	0.861997	-0.203942	0	0	-0.313496	0.223577	0.0600801	-0.345106	-0.405662	0.247252	0.715197	1.01274	0	0	0.495946	-0.53243	1.4477	0.55974	1.05794	0	0
0.06	-1.09373	1.44303	-0.344234	0.755769	1.98768	1.0008	0.432356	0.0769136	-0.141397	0.588011	-0.116884	0	0	-0.14026	-0.215597	-0.0922698	0.90515	-0.222802	0	0	-0.313856	0.226843	0.0626849	-0.346739	-0.406829	0.244132	0.717935	1.01172	0	0	0.479581	-0.529639	1.45391	0.54883	1.05031	0	0
0.07	-1.10233	1.4429	-0.34006	0.754558	1.97541	1.00218	0.422652	0.0806851	-0.146455	0.590128	-0.110006	0	0	-0.119629	-0.210728	-0.0777009	0.947662	-0.237727	0	0	-0.314251	0.230068	0.0659563	-0.347896	-0.40831	0.241777	0.720075	1.01041	0	0	0.464509	-0.526322	1.46257	0.53885	1.04118	0	0
0.08	-1.1187	1.44328	-0.328666	0.753404	1.96339	1.00349	0.414283	0.0846174	-0.148901	0.594324	-0.0933211	0	0	-0.096874	-0.205279	-0.0632681	0.989143	-0.235092	0	0	-0.313501	0.232481	0.0712541	-0.3488	-0.408871	0.239579	0.720156	1.011	0	0	0.460459	-0.522729	1.50758	0.53312	0.98982	0	0
0.09	-1.11858	1.44357	-0.334683	0.752286	1.95157	1.00497	0.400401	0.0905199	-0.139876	0.59144	-0.0874039	0	0	-0.0763732	-0.199784	-0.0531305	1.0282	-0.220254	0	0	-0.315567	0.233811	0.0768067	-0.34936	-0.410155	0.237303	0.722188	1.01014	0	0	0.44708	-0.520661	1.51152	0.52899	0.983309	0	0
0.1	-1.11117	1.44498	-0.348349	0.751097	1.9398	1.00646	0.385953	0.0953217	-0.129214	0.589006	-0.0786379	0	0	-0.055669	-0.193789	-0.0482547	1.06647	-0.198831	0	0	-0.317738	0.232874	0.0833587	-0.350095	-0.410454	0.234263	0.723673	1.00726	0	0	0.435642	-0.519007	1.51907	0.525839	0.978247	0	0
0.11	-1.08861	1.44732	-0.37689	0.749929	1.92812	1.00815	0.369964	0.0982472	-0.12007	0.586492	-0.068772	0	0	-0.0348519	-0.186896	-0.0474946	1.1038	-0.178808	0	0	-0.321241	0.229757	0.0901746	-0.35036	-0.410046	0.23135	0.724413	1.0023	0	0	0.425973	-0.517577	1.5282	0.523387	0.973481	0	0
0.12	-1.05775	1.44983	-0.413816	0.748742	1.91645	1.00994	0.352223	0.10094	-0.111132	0.581625	-0.0533499	0	0	-0.0138452	-0.180947	-0.0510907	1.13899	-0.158987	0	0	-0.325283	0.225404	0.0982645	-0.350258	-0.409767	0.231572	0.724001	0.992523	0	0	0.421725	-0.51657	1.55307	0.523643	0.952067	0	0
0.13	-1.01754	1.45209	-0.45972	0.747552	1.90486	1.01194	0.332449	0.103281	-0.10405	0.573314	-0.048627	0	0	0.0068026	-0.176004	-0.0567588	1.16976	-0.148253	0	0	-0.329924	0.220449	0.105212	-0.348626	-0.408393	0.231885	0.721555	0.989457	0	0	0.412275	-0.516147	1.5571	0.522803	0.949774	0	0
0.14	-0.976956	1.45409	-0.505325	0.746366	1.89345	1.01402	0.310665	0.106398	-0.0953322	0.559646	-0.0431736	0	0	0.028328	-0.171628	-0.0614196	1.19652	-0.135081	0	0	-0.334394	0.215476	0.112169	-0.346029	-0.406769	0.233584	0.717416	0.984806	0	0	0.404082	-0.514865	1.56371	0.520616	0.943248	0	0
0.15	-0.940929	1.45587	-0.546344	0.745134	1.88214	1.01607	0.288487	0.109804	-0.0868016	0.544036	-0.0392092	0	0	0.0506421	-0.168166	-0.0649456	1.21833	-0.123632	0	0	-0.338135	0.210653	0.119323	-0.34292	-0.405008	0.236345	0.712135	0.981223	0	0	0.395646	-0.513775	1.56725	0.519229	0.935103	0	0
0.16	-0.904432	1.45667	-0.588671	0.74396	1.87091	1.01807	0.264721	0.113113	-0.0795091	0.526353	-0.0362697	0	0	0.0717663	-0.165134	-0.0671008	1.23452	-0.111951	0	0	-0.34254	0.206566	0.127836	-0.340956	-0.404124	0.238251	0.708675	0.97644	0	0	0.386864	-0.512824	1.56664	0.519457	0.926331	0	0
0.17	-0.85674	1.45651	-0.644042	0.742783	1.86006	1.02006	0.239162	0.115833	-0.0695938	0.508289	-0.0337306	0	0	0.0907733	-0.16196	-0.0704642	1.24508	-0.10171	0	0	-0.349886	0.202075	0.138833	-0.340497	-0.40469	0.238245	0.709351	0.969956	0	0	0.379481	-0.512524	1.56446	0.522108	0.918788	0	0
0.18	-0.787185	1.45419	-0.724971	0.741478	1.84969	1.02219	0.210235	0.118451	-0.0535972	0.490402	-0.0308956	0	0	0.105143	-0.159794	-0.0794814	1.24959	-0.0946298	0	0	-0.362825	0.196567	0.154289	-0.3428	-0.407455	0.234868	0.717013	0.962656	0	0	0.375121	-0.512257	1.56486	0.526987	0.91115	0	0
0.19	-0.733394	1.45153	-0.787824	0.74044	1.83901	1.02421	0.180333	0.12071	-0.0409299	0.467985	-0.0296457	0	0	0.120786	-0.158853	-0.0868259	1.24948	-0.0892945	0	0	-0.372747	0.192592	0.16716	-0.345261	-0.40952	0.231723	0.722679	0.956253	0	0	0.369505	-0.511058	1.56588	0.530321	0.903862	0	0
0.2	-0.692134	1.44943	-0.835455	0.739589	1.82799	1.0261	0.150263	0.122002	-0.0329647	0.440952	-0.0318581	0	0	0.137885	-0.158474	-0.0927973	1.24519	-0.0842534	0	0	-0.379129	0.189359	0.176445	-0.346756	-0.410084	0.229513	0.724517	0.949869	0	0	0.362111	-0.509737	1.56615	0.532164	0.898598	0	0
0.21	-0.651749	1.44816	-0.880478	0.738842	1.81691	1.02789	0.120345	0.122285	-0.0260697	0.412221	-0.0361906	0	0	0.155242	-0.157947	-0.0997839	1.23672	-0.0792574	0	0	-0.383813	0.185618	0.1832	-0.347268	-0.409685	0.228107	0.724202	0.944059	0	0	0.353178	-0.508691	1.56114	0.53376	0.895248	0	0
0.22	-0.609172	1.4462	-0.928309	0.738098	1.80594	1.02959	0.0898718	0.122485	-0.0168143	0.382589	-0.0428954	0	0	0.17083	-0.157194	-0.108391	1.22523	-0.0733382	0	0	-0.389394	0.1817	0.190014	-0.348198	-0.409768	0.225925	0.725395	0.938823	0	0	0.344736	-0.507121	1.55829	0.534656	0.894186	0	0
0.23	-0.560467	1.44257	-0.982064	0.737432	1.79503	1.03132	0.0568827	0.122721	-0.00687805	0.351641	-0.0502621	0	0	0.183496	-0.156106	-0.118475	1.21078	-0.0672528	0	0	-0.397028	0.177781	0.196389	-0.349501	-0.410134	0.222694	0.727948	0.934443	0	0	0.337244	-0.505739	1.55783	0.535984	0.893859	0	0
0.24	-0.507015	1.43722	-1.04017	0.736801	1.78407	1.03304	0.0206493	0.122813	0.00331739	0.319319	-0.0567015	0	0	0.192831	-0.155734	-0.132353	1.1937	-0.061161	0	0	-0.406497	0.173614	0.202276	-0.351415	-0.410472	0.21888	0.731659	0.930946	0	0	0.329636	-0.505068	1.55519	0.538395	0.894138	0	0
0.25	-0.45501	1.43058	-1.09626	0.736248	1.77303	1.03464	-0.017987	0.122342	0.0140942	0.285318	-0.0631897	0	0	0.199596	-0.156574	-0.15055	1.17456	-0.0548083	0	0	-0.416795	0.16966	0.207486	-0.354321	-0.410825	0.214354	0.736709	0.929094	0	0	0.32142	-0.504689	1.54948	0.541605	0.894799	0	0
0.26	-0.404415	1.42346	-1.14957	0.735814	1.76198	1.03607	-0.0586993	0.120762	0.0252164	0.24908	-0.0696042	0	0	0.20438	-0.157542	-0.171702	1.15257	-0.0481107	0	0	-0.427117	0.165552	0.210701	-0.357318	-0.410581	0.208699	0.742149	0.928234	0	0	0.314037	-0.504149	1.54852	0.54404	0.895301	0	0
0.27	-0.358207	1.41653	-1.19719	0.735515	1.75102	1.03724	-0.097695	0.118036	0.0351042	0.212518	-0.0792478	0	0	0.208561	-0.158374	-0.194187	1.12858	-0.0406174	0	0	-0.436874	0.161525	0.212447	-0.360636	-0.409955	0.201984	0.748177	0.927667	0	0	0.306815	-0.504151	1.54616	0.547911	0.895303	0	0
0.28	-0.319334	1.40914	-1.23762	0.735225	1.74007	1.03813	-0.134616	0.115147	0.0430667	0.178892	-0.0909478	0	0	0.211769	-0.158727	-0.215535	1.1028	-0.0325896	0	0	-0.446598	0.157803	0.214714	-0.364729	-0.409374	0.194735	0.755021	0.927008	0	0	0.298894	-0.504888	1.53853	0.553887	0.896092	0	0
0.29	-0.283539	1.40026	-1.27755	0.734648	1.72894	1.03901	-0.170684	0.111985	0.0513838	0.151067	-0.101021	0	0	0.209339	-0.161044	-0.243743	1.0713	-0.02467	0	0	-0.457225	0.152655	0.218988	-0.368026	-0.408432	0.189152	0.760141	0.927031	0	0	0.290594	-0.505889	1.53141	0.559406	0.898651	0	0
0.3	-0.255742	1.39273	-1.30909	0.734158	1.71786	1.03948	-0.202655	0.108904	0.0575956	0.128318	-0.107339	0	0	0.20832	-0.162857	-0.271	1.0384	-0.0168082	0	0	-0.466026	0.147836	0.222138	-0.370863	-0.407687	0.184185	0.76512	0.927138	0	0	0.28213	-0.506438	1.52638	0.563672	0.900421	0	0
0.31	-0.236121	1.38588	-1.33233	0.733674	1.70664	1.03941	-0.238881	0.106505	0.0646459	0.0901656	-0.123016	0	0	0.208579	-0.164625	-0.295555	1.00641	-0.00778554	0	0	-0.473594	0.143861	0.224919	-0.375163	-0.407212	0.178021	0.772224	0.928057	0	0	0.274131	-0.506442	1.52607	0.566987	0.900907	0	0
0.32	-0.222746	1.38025	-1.3482	0.733358	1.69552	1.0389	-0.277515	0.104456	0.0727184	0.0396797	-0.153873	0	0	0.211155	-0.165785	-0.316344	0.974401	0.000115726	0	0	-0.479748	0.140806	0.226737	-0.379668	-0.406709	0.171545	0.77962	0.930719	0	0	0.26612	-0.506724	1.52467	0.571194	0.899155	0	0
0.33	-0.214164	1.37616	-1.35884	0.733018	1.68444	1.03815	-0.306302	0.102486	0.0782803	0.0113669	-0.172633	0	0	0.214624	-0.169065	-0.340607	0.940108	0.00444078	0	0	-0.483934	0.137794	0.227349	-0.381932	-0.405685	0.16732	0.783988	0.933415	0	0	0.25682	-0.506842	1.51983	0.574064	0.896805	0	0
0.34	-0.210379	1.37343	-1.36483	0.732657	1.67347	1.03714	-0.327856	0.100737	0.0818305	0	-0.179867	0	0	0.219256	-0.173669	-0.365371	0.904634	0.00517196	0	0	-0.486737	0.13495	0.227683	-0.382712	-0.40471	0.165072	0.78659	0.935977	0	0	0.247144	-0.505987	1.51437	0.574567	0.893376	0	0
0.35	-0.210725	1.37249	-1.36652	0.732344	1.66255	1.03578	-0.343695	0.0993812	0.0816302	0	-0.177978	0	0	0.226261	-0.178347	-0.388223	0.869559	0.00413236	0	0	-0.487623	0.132274	0.227916	-0.382779	-0.4036	0.163812	0.788024	0.937863	0	0	0.237248	-0.504903	1.50757	0.573926	0.889823	0	0
0.36	-0.212333	1.37277	-1.36673	0.732067	1.65161	1.03413	-0.357912	0.0979241	0.0798161	0	-0.170298	0	0	0.234578	-0.182904	-0.410252	0.835703	0.000829844	0	0	-0.4869	0.129431	0.227705	-0.382428	-0.40204	0.162897	0.788354	0.939995	0	0	0.227014	-0.503695	1.49872	0.572536	0.886036	0	0
0.37	-0.216474	1.37434	-1.36411	0.731821	1.6406	1.03217	-0.370563	0.0966324	0.0768698	0	-0.164026	0	0	0.24446	-0.188001	-0.431973	0.805966	0.000209797	0	0	-0.48453	0.126605	0.227667	-0.381895	-0.40015	0.162719	0.787646	0.940911	0	0	0.218016	-0.502197	1.49265	0.569344	0.883342	0	0
